<?xml version="1.0" standalone="no"?>
<!DOCTYPE svg PUBLIC "-//W3C//DTD SVG 20010904//EN"
 "http://www.w3.org/TR/2001/REC-SVG-20010904/DTD/svg10.dtd">
<svg version="1.0" xmlns="http://www.w3.org/2000/svg"
 width="500.000000pt" height="500.000000pt" viewBox="0 0 500.000000 500.000000"
 preserveAspectRatio="xMidYMid meet">
<metadata>
Created by potrace 1.14, written by Peter Selinger 2001-2017
</metadata>
<g transform="translate(0.000000,500.000000) scale(0.100000,-0.100000)"
fill="#000000" stroke="none">
<path d="M2283 4470 c-276 -35 -569 -138 -803 -281 -449 -275 -785 -755 -890
-1270 -58 -286 -51 -615 20 -893 141 -554 513 -1013 1029 -1272 295 -147 600
-212 946 -201 228 8 382 36 585 108 437 156 792 447 1036 849 361 596 366
1389 12 1990 -143 242 -275 390 -535 600 -32 26 -195 127 -262 162 -147 78
-327 141 -511 179 -128 27 -169 31 -350 34 -113 2 -237 0 -277 -5z m423 -532
c7 -11 -21 -40 -62 -64 -16 -10 -17 -13 -5 -28 7 -9 26 -16 41 -16 29 0 49
-27 27 -36 -7 -2 -67 -3 -133 -2 -98 2 -119 6 -119 18 0 12 15 16 68 18 37 2
67 6 67 11 0 4 -13 20 -30 36 -31 29 -39 55 -18 55 6 0 21 -9 32 -19 21 -20
21 -20 66 9 52 33 56 34 66 18z m-82 -214 c3 -9 6 -37 6 -64 0 -43 2 -48 20
-43 35 9 45 42 25 80 -20 37 -14 53 11 32 41 -34 36 -112 -9 -144 -34 -24 -94
-19 -122 10 -29 29 -34 88 -9 123 18 26 69 30 78 6z m-1477 -90 c14 -11 34
-35 44 -54 18 -33 19 -79 19 -972 l0 -938 420 0 c465 0 464 0 509 -66 17 -24
23 -48 23 -85 0 -55 -16 -87 -66 -123 -27 -21 -40 -21 -549 -23 l-522 -3 -39
23 c-21 12 -47 38 -57 57 -18 33 -19 81 -19 1070 l0 1035 24 36 c14 20 39 43
58 53 42 21 120 16 155 -10z m2643 -29 c85 -18 211 -83 282 -146 117 -102 199
-268 214 -428 8 -81 -5 -127 -46 -166 -26 -25 -41 -30 -94 -33 -63 -4 -65 -3
-106 35 -40 37 -42 42 -52 123 -16 141 -86 243 -206 302 -39 19 -63 23 -142
23 -84 0 -101 -3 -145 -27 -77 -40 -131 -93 -162 -156 -24 -50 -28 -68 -28
-152 0 -112 21 -167 91 -237 68 -67 127 -92 252 -104 163 -15 263 -47 367
-119 90 -62 189 -188 229 -289 23 -59 46 -173 46 -227 0 -174 -105 -386 -244
-493 -264 -204 -623 -184 -856 48 -42 42 -89 97 -105 124 -64 111 -107 303
-84 375 26 82 105 125 184 102 74 -22 98 -58 114 -173 19 -133 85 -228 197
-283 51 -25 71 -29 144 -29 67 0 95 5 134 23 107 49 183 140 207 249 9 41 9
65 -1 113 -35 166 -185 280 -370 280 -78 0 -173 25 -260 68 -112 54 -234 178
-288 292 -78 162 -88 330 -29 493 37 100 84 171 167 251 83 79 184 135 285
160 77 18 222 19 305 1z m-1080 -105 c0 -18 -7 -20 -59 -20 -78 0 -91 -6 -91
-41 0 -32 11 -37 95 -41 37 -2 51 -7 53 -19 2 -13 -9 -18 -61 -23 -95 -11
-140 7 -106 41 8 8 8 13 0 17 -17 11 -13 72 5 90 11 12 36 16 90 16 67 0 74
-2 74 -20z m-5 -214 c-13 -20 -13 -26 2 -56 14 -30 15 -36 2 -59 -32 -57 -93
-30 -105 45 -5 33 -11 44 -24 44 -29 0 -35 -38 -11 -71 21 -28 14 -46 -14 -35
-18 6 -34 66 -28 99 8 42 32 56 103 59 86 4 93 2 75 -26z m-145 -196 c0 -38
23 -50 94 -50 49 0 56 -2 56 -20 0 -19 -7 -20 -90 -20 -90 0 -108 8 -79 37 8
8 8 13 0 17 -12 8 -15 49 -4 59 14 15 23 6 23 -23z m105 -144 c18 -8 38 -23
44 -34 10 -19 5 -58 -11 -79 -5 -7 -5 -14 2 -18 5 -3 10 -13 10 -21 0 -11 -23
-14 -123 -14 -68 0 -126 3 -130 6 -3 3 -3 12 0 20 3 9 21 14 51 14 36 0 43 3
34 12 -7 7 -12 28 -12 48 0 48 28 73 88 79 7 0 28 -5 47 -13z m-37 -283 c3
-67 10 -75 42 -43 25 25 25 41 0 73 -26 32 -7 49 22 19 40 -40 17 -134 -37
-148 -39 -10 -93 4 -110 29 -20 28 -19 86 1 115 12 17 24 22 47 20 32 -3 32
-3 35 -65z m58 -166 c23 -20 27 -32 27 -75 0 -29 -6 -58 -13 -67 -17 -21 -50
-34 -67 -28 -22 9 -14 32 12 39 43 11 47 96 5 107 -19 5 -50 -24 -50 -47 0 -5
-9 -29 -21 -53 -18 -38 -25 -43 -53 -43 -37 0 -60 21 -70 64 -9 36 10 93 35
107 37 19 55 -16 19 -39 -25 -15 -28 -79 -5 -88 23 -9 42 12 54 61 21 82 74
108 127 62z m-58 -384 c2 -35 6 -63 10 -63 18 0 52 33 52 49 0 10 -9 30 -20
44 -25 31 -25 37 -1 37 12 0 25 -13 36 -35 13 -29 14 -42 5 -70 -14 -41 -29
-54 -72 -61 -49 -8 -87 10 -103 51 -19 44 -19 44 5 83 17 28 25 33 53 30 32
-3 32 -3 35 -65z m82 -133 c16 -11 17 -10 -43 -48 -20 -13 -37 -27 -37 -31 0
-16 26 -31 52 -31 21 0 28 -5 28 -20 0 -20 -5 -20 -127 -18 -106 3 -128 6
-128 18 0 12 15 16 68 18 37 2 67 6 67 11 0 4 -13 20 -30 36 -31 29 -39 55
-18 55 6 0 21 -9 33 -20 21 -19 21 -19 65 10 51 34 49 33 70 20z m4 -219 c3
-5 0 -14 -8 -20 -12 -10 -12 -16 1 -41 12 -25 12 -34 1 -57 -10 -22 -23 -30
-61 -37 -63 -11 -119 -1 -115 22 3 13 18 18 73 22 66 5 70 6 73 31 4 36 -14
47 -83 51 -48 2 -60 7 -63 21 -3 15 6 17 87 17 49 0 92 -4 95 -9z m-9 -282 l0
-84 -115 -3 c-123 -2 -153 5 -131 32 11 13 35 16 112 16 l99 0 0 58 c0 60 5
75 24 69 7 -2 11 -37 11 -88z"/>
<path d="M2582 3703 c-39 -14 -32 -83 8 -83 17 0 19 5 14 43 -7 49 -5 46 -22
40z"/>
<path d="M2620 3263 c0 -5 5 -25 11 -45 7 -27 16 -38 29 -38 26 0 35 36 16 65
-15 23 -56 35 -56 18z"/>
<path d="M2590 2911 c-18 -5 -26 -15 -28 -35 -4 -36 13 -56 50 -56 42 0 68 17
68 44 0 38 -42 60 -90 47z"/>
<path d="M2560 2671 c-12 -24 -4 -48 21 -62 14 -7 19 -6 20 3 0 7 2 28 3 46 2
25 -1 32 -15 32 -10 0 -23 -9 -29 -19z"/>
<path d="M2560 2119 c-9 -16 -8 -26 5 -45 19 -30 33 -31 40 -1 14 60 -20 94
-45 46z"/>
</g>
</svg>
